<?xml version="1.0" standalone="no"?>
<!DOCTYPE svg PUBLIC "-//W3C//DTD SVG 20010904//EN"
 "http://www.w3.org/TR/2001/REC-SVG-20010904/DTD/svg10.dtd">
<svg version="1.0" xmlns="http://www.w3.org/2000/svg"
 width="32.000000pt" height="32.000000pt" viewBox="0 0 32.000000 32.000000"
 preserveAspectRatio="xMidYMid meet">

<g transform="translate(0.000000,32.000000) scale(0.100000,-0.100000)"
fill="#000000" stroke="none">
<path d="M55 190 l-29 -30 32 -32 c36 -37 57 -30 22 7 l-23 25 21 23 c12 13
22 26 22 30 0 15 -17 6 -45 -23z"/>
<path d="M230 215 c0 -3 7 -17 16 -30 15 -23 15 -27 -1 -51 -24 -37 -8 -45 21
-9 29 36 29 36 3 69 -18 23 -39 34 -39 21z"/>
</g>
</svg>
